<svg version="1" xmlns="http://www.w3.org/2000/svg" width="1600" height="1600" viewBox="0 0 1200.000000 1200.000000"><path d="M574.8 168.5c-.1.2-4.7.6-10.1 1-5.3.3-10.7.8-12 1-1.2.2-4.9.7-8.2 1-3.3.3-6.9.8-8 1-1.1.3-3.6.7-5.5.9-26.7 3.7-72 16.5-96.5 27.1-1.6.7-6.4 2.7-10.5 4.5-33.3 14.4-70.3 37.2-99.5 61.5-54 44.8-95.4 100.3-122 163.6-5.5 13.1-14.2 37.2-16.4 45.6l-1.2 4.3h-52.1c-38 0-53.2.3-56.2 1.2-5.8 1.7-13.8 10-15.4 15.8-1 3.5-1.2 27.8-1 105 .3 111.5-.2 103.6 6.9 110.8 6.8 6.9 4.6 6.7 64 7l53.7.3 2.2 7.2c12.6 40.9 30 77.8 52.8 111.9 14.1 21.1 13.7 20.5 29.3 39.3 17.2 20.7 32.6 35.8 59.9 58.9 1.4 1.2 7.5 5.8 13.5 10.2 43 31.8 94.3 56.4 145.5 69.8 7.4 1.9 14.6 3.7 16 4 1.4.2 8.1 1.6 15 2.9 6.9 1.4 14.8 2.8 17.5 3.1 2.8.4 8.6 1.1 13 1.6 15.7 2 26.4 2.5 50.5 2.5 27.7 0 42.1-1 62.5-4 1.7-.3 4.6-.7 6.5-.9 1.9-.3 6-1 9-1.6 3-.6 6.6-1.3 8-1.5 1.4-.2 7.2-1.5 13-2.9 50-11.6 95.7-31.2 139-59.4 40.2-26.3 77-60.7 106.6-99.7 5.6-7.3 18.9-26.7 22.4-32.6.8-1.3 3.6-6 6.2-10.4 6.8-11.2 21.6-41.6 27.6-56.5 2.7-6.9 7.1-19.1 9.8-27.3l4.8-14.7h52.1c58.1 0 58.2 0 64.8-6.7 7.8-7.7 7.2 1.4 7.2-113.3 0-96.6-.1-102.7-1.8-106.1-2.4-4.7-6.8-9.2-11.5-11.5-3.4-1.8-7.4-1.9-57.3-2.2l-53.6-.2-4.7-14.8c-30.1-92.8-91.3-173.1-172.6-226.4-6.3-4.1-12.8-8.3-14.5-9.2-1.6-.9-6.1-3.5-10-5.7-20.5-11.8-52.9-26.1-76.7-34-11.1-3.7-35.1-10.3-41.1-11.3-1.5-.3-3.5-.7-4.5-1-.9-.3-2.8-.7-4.2-1-1.4-.2-6.3-1.1-11-1.9-8.9-1.7-11.3-2-25-3.7-4.7-.5-10.7-1.2-13.5-1.6-5.3-.6-62.1-1.5-62.7-.9zm58.7 48.8c1.7.3 5.9.8 9.5 1.2 10.7 1.1 18.5 2.2 25.5 3.5 2.8.6 6.1 1.2 7.5 1.5 1.4.3 3.6.7 5 1 1.4.3 3.5.7 4.7 1 15.3 2.8 49.3 13.9 65.1 21.2 4.1 1.8 7.7 3.3 8 3.3.9 0 22.1 10.7 29.7 15 19.8 11 43.3 27.4 61.3 42.7 8.5 7.2 34 32.7 41.5 41.5 30.2 35.4 53.7 76.1 70.3 121.5l3.4 9.3H848.2l-1.7-3.8c-3.6-7.5-12-22-18.3-31.1-40.5-59.6-101.4-100.4-171.7-115.2-5.5-1.1-11.6-2.3-13.5-2.5-1.9-.2-4.4-.6-5.5-.9-11.5-2.6-60.7-2.7-74-.1-1.1.2-4.2.7-6.8 1-23.3 3.2-53.1 12.7-78.2 25.1-33.8 16.6-63.1 39.2-88 67.8-12 13.8-26.9 36.1-35.5 52.9l-3.4 6.8H235.1l3.4-9.6c30.2-84.4 90.8-157.9 166-201.3 5-2.8 9.7-5.6 10.5-6.1 2.6-1.6 25.3-12.6 32.6-15.8 11.9-5.2 40-15.2 46.6-16.6 1.3-.3 4.8-1.2 7.8-2.1 7.3-2 27.2-6.2 33.5-7 2.8-.4 5.2-.9 5.5-1 .3-.2 3.3-.7 6.5-1 3.3-.4 7.4-.9 9-1.1 1.7-.2 6.8-.7 11.5-1 4.7-.4 8.7-.8 8.8-1 .6-.4 53.4.4 56.7.9zm-7 156.2c46.9 6.7 83.5 22.4 118 50.3 8.4 6.9 25.2 23.5 32 31.6 4.4 5.4 15.2 20.1 16.6 22.8.9 1.7-8.6 1.8-193.1 1.8H405.9l1.2-2.3c1.7-3 12.2-18.1 13.9-19.7.3-.3 3-3.4 6.2-7 30.3-35.2 71.1-60.4 116.4-71.9 4.3-1.1 9.3-2.2 10.9-2.5 1.7-.3 5.4-1 8.4-1.6 3-.5 9-1.3 13.5-1.6 4.5-.4 8.3-.8 8.6-1.1.6-.5 36.6.4 41.5 1.2zM1092 600v72H108V528h984v72zM356.4 729.3c13.9 26.1 28.3 45.4 49.6 66.6 44.6 44.4 104.3 72.6 166.8 78.8 12.3 1.3 48.7.9 59.7-.6 5.5-.8 10.9-1.5 12.1-1.6 1.1-.2 4.5-.8 7.5-1.4 3-.6 6.3-1.3 7.4-1.5 5.3-1 22-5.9 31-9 38-13 73.6-35.1 102.1-63.2 22.6-22.2 38.2-43.4 52.6-71.2l3.2-6.2h115.9l-.6 3c-1.1 5.3-11.7 31.1-18.7 45.5-19.3 39.8-42.8 72.6-74.4 104-25 24.8-42.8 38.7-75.4 58.7-9.4 5.8-34.3 18.1-47.2 23.4-26.1 10.6-48.7 17.4-74 22.2-12.6 2.4-14.7 2.8-30 4.7-21.1 2.7-71.7 2.7-87 .1-1.4-.3-4.7-.7-7.5-1-8.3-.9-22.7-3.3-30.5-5.1-1.4-.4-3.7-.8-5.1-1.1-1.4-.3-7.5-1.8-13.5-3.5s-11.3-3.1-11.9-3.3c-8.5-2.3-24.4-7.9-33-11.5-41.5-17.6-71.7-35.9-103.5-62.4-10-8.4-34-32.2-42.6-42.2-15.3-17.7-31.3-40.6-42.9-60.9-6.4-11.3-20.5-39.9-20.5-41.6 0-.4-1-2.9-2.1-5.6-1.2-2.7-3.7-9-5.5-14.1l-3.3-9.3h116.4l4.9 9.3zm436-8.1c-11 17.9-28.1 37.6-45.4 52.2-18.6 15.8-34.7 25.6-61 37.4-14 6.2-36.9 12.3-59.5 15.7-6.8 1.1-42.6 1.3-50 .4-16.9-2.1-19.3-2.6-30.6-5.4-33.1-8.3-61.9-22.5-89.2-44.2-15.8-12.5-40.7-40.1-49-54.2l-1.8-3.1h193.6c154.6 0 193.5.3 192.9 1.2z"/></svg>